<svg version="1.1" id="Layer_1" xmlns="http://www.w3.org/2000/svg" xmlns:xlink="http://www.w3.org/1999/xlink" x="0px" y="0px"
	 width="100%" viewBox="0 0 1254 1254" enable-background="new 0 0 1254 1254" xml:space="preserve">
<path fill="#FD5251" opacity="1.000000" stroke="none" 
	d="
M613.089233,539.117798 
	C603.879028,545.483215 594.063416,548.208862 583.166260,548.179443 
	C526.348633,548.026001 469.530457,548.123230 412.712524,548.079407 
	C386.812775,548.059387 366.494873,529.382812 364.255066,503.682220 
	C361.933899,477.048340 383.938599,452.550720 411.467590,452.386841 
	C469.616272,452.040680 527.769470,452.135071 585.919006,452.423889 
	C606.600769,452.526581 623.864380,466.179108 630.610840,486.383240 
	C636.815002,504.963287 630.058960,525.557617 613.089233,539.117798 
z"/>
<path fill="#FD5251" opacity="1.000000" stroke="none" 
	d="
M591.068237,321.771149 
	C610.026245,322.960388 628.440674,340.256409 631.858093,360.083649 
	C637.077698,390.366791 614.817993,416.833618 584.064758,416.846985 
	C527.067810,416.871765 470.070862,416.895752 413.073975,416.850616 
	C388.728210,416.831360 369.467804,400.907410 364.848145,377.193115 
	C359.909363,351.840576 377.900116,326.472900 404.820679,322.154663 
	C406.644653,322.669922 407.777710,322.978882 408.910889,322.979309 
	C468.113342,323.002716 527.315796,323.009125 586.518188,322.948547 
	C588.035278,322.946991 589.551575,322.180756 591.068237,321.771149 
z"/>
<path fill="#879AA5" opacity="1.000000" stroke="none" 
	d="
M674.182251,511.000000 
	C674.177734,455.532654 674.162964,400.565308 674.178284,345.597961 
	C674.181824,332.817474 682.278381,324.001801 693.978821,323.903809 
	C705.202576,323.809784 713.978943,332.303436 714.022034,343.678040 
	C714.125488,370.994781 714.071899,398.312134 714.079041,425.629242 
	C714.089600,465.772064 714.099854,505.914917 714.106140,546.057739 
	C714.108093,558.617249 705.744507,567.673401 694.142212,567.691406 
	C682.895081,567.708923 674.182495,558.251770 674.170837,545.979858 
	C674.159912,534.486572 674.177795,522.993286 674.182251,511.000000 
z"/>
<path fill="#879BA6" opacity="1.000000" stroke="none" 
	d="
M815.000000,775.133301 
	C769.040161,775.135193 723.580261,775.141235 678.120422,775.137085 
	C666.412842,775.136047 658.541626,768.007446 658.378967,757.297607 
	C658.223938,747.085876 666.738525,739.119446 678.014709,739.114929 
	C737.628723,739.090881 797.242676,739.095398 856.856689,739.123291 
	C867.862183,739.128418 875.904480,746.904358 875.806702,757.381104 
	C875.713867,767.325989 867.216858,775.542542 856.959595,775.203857 
	C843.153992,774.747864 829.321167,775.118042 815.000000,775.133301 
z"/>
<path fill="#899DA7" opacity="1.000000" stroke="none" 
	d="
M622.844238,679.000000 
	C622.833557,704.481323 622.909241,729.463074 622.778931,754.443787 
	C622.701233,769.336670 609.478577,779.255676 596.046387,774.746521 
	C587.936523,772.024048 582.172241,764.548950 582.156189,755.873596 
	C582.068481,708.409302 582.043640,660.944641 582.159485,613.480530 
	C582.187195,602.136719 591.673096,593.135681 602.743774,593.293701 
	C613.683411,593.449768 622.695435,602.570251 622.776123,614.048401 
	C622.927246,635.531311 622.834961,657.016052 622.844238,679.000000 
z"/>
<path fill="#879BA6" opacity="1.000000" stroke="none" 
	d="
M658.293213,618.126831 
	C660.387878,605.491577 666.757690,599.897034 678.925476,599.880920 
	C718.873962,599.828003 758.822571,599.816528 798.771118,599.841980 
	C810.881714,599.849731 819.042480,607.703491 818.983704,619.085388 
	C818.928223,629.835449 810.328186,637.783447 798.577820,637.791077 
	C758.795715,637.816956 719.013672,637.819763 679.231567,637.780029 
	C666.655823,637.767456 659.583618,631.191406 658.293213,618.126831 
z"/>
<path fill="#879BA6" opacity="1.000000" stroke="none" 
	d="
M525.669067,775.048462 
	C505.232574,775.094727 485.255432,775.062012 465.278809,775.144470 
	C449.141083,775.211060 433.003845,775.506470 416.866516,775.495911 
	C412.911133,775.493286 408.782135,775.270813 405.035156,774.144287 
	C395.400787,771.247620 390.361786,762.706787 391.886383,752.901794 
	C393.429535,742.977173 401.302887,736.260864 411.808807,736.235535 
	C442.129425,736.162415 472.450287,736.192383 502.771057,736.189575 
	C509.934631,736.188904 517.102844,736.060547 524.260681,736.271301 
	C534.928101,736.585327 543.360535,744.608582 543.819946,754.590576 
	C544.311829,765.279480 537.213257,773.476379 525.669067,775.048462 
z"/>
<path fill="#889CA7" opacity="1.000000" stroke="none" 
	d="
M688.006409,670.140869 
	C725.324829,670.143005 762.144531,670.099609 798.964111,670.169128 
	C812.350159,670.194458 821.652100,682.069214 817.788330,693.927185 
	C815.334290,701.458740 808.479187,706.754639 800.535767,706.767456 
	C759.217957,706.834045 717.899902,706.855530 676.582153,706.761902 
	C666.538879,706.739136 658.443848,698.400879 658.392151,688.575867 
	C658.342285,679.108643 666.325562,670.701538 676.013611,670.197754 
	C679.835632,669.998962 683.675781,670.148865 688.006409,670.140869 
z"/>
<path fill="#869AA5" opacity="1.000000" stroke="none" 
	d="
M870.216980,559.034790 
	C865.894470,565.053040 860.249084,567.672119 853.286926,567.669678 
	C824.812561,567.659485 796.337891,567.720581 767.863892,567.619629 
	C755.970520,567.577454 748.940552,561.824341 747.402588,551.355469 
	C745.882996,541.011536 753.461121,531.171692 763.919739,531.083557 
	C794.889465,530.822571 825.866272,530.717529 856.833191,531.108948 
	C870.037109,531.275818 877.018494,546.169434 870.216980,559.034790 
z"/>
<path fill="#889CA7" opacity="1.000000" stroke="none" 
	d="
M489.312561,689.385071 
	C488.813812,686.566345 488.170197,684.116760 488.162476,681.665222 
	C488.091156,659.030762 488.104553,636.395813 488.146912,613.761169 
	C488.168304,602.339233 496.866425,593.573669 508.286224,593.337708 
	C519.223267,593.111694 528.708496,602.303528 528.768066,613.564209 
	C528.886108,635.865417 528.820068,658.167664 528.804810,680.469482 
	C528.797180,691.542664 523.034668,699.631714 513.668701,701.817810 
	C503.288818,704.240601 494.507660,699.864014 489.312561,689.385071 
z"/>
<path fill="#879BA6" opacity="1.000000" stroke="none" 
	d="
M389.814301,646.000000 
	C389.829132,634.842651 389.758118,624.184265 389.878723,613.528137 
	C390.009644,601.958557 399.012939,593.086853 410.193634,593.310791 
	C421.066071,593.528625 429.936218,602.548523 429.967926,613.713318 
	C430.032745,636.526672 430.021606,659.340759 429.916199,682.153931 
	C429.861053,694.092285 421.559265,702.196472 409.722473,702.183411 
	C398.135620,702.170715 389.988739,694.170715 389.874878,682.468872 
	C389.758209,670.480225 389.825897,658.489685 389.814301,646.000000 
z"/>
<path fill="#879BA6" opacity="1.000000" stroke="none" 
	d="
M855.606323,688.012451 
	C855.344727,683.123962 855.098938,678.639282 855.087769,674.154053 
	C855.042664,656.001038 855.013306,637.847534 855.090271,619.694702 
	C855.140320,607.891785 862.915222,599.992798 874.294739,599.941772 
	C885.269226,599.892456 892.964783,607.865356 893.000061,619.534546 
	C893.063965,640.685242 893.066162,661.836304 893.014832,682.987000 
	C892.988953,693.654602 886.881592,700.731323 876.609924,702.263184 
	C867.367310,703.641602 858.869019,698.005737 855.606323,688.012451 
z"/>
<path fill="#889CA7" opacity="1.000000" stroke="none" 
	d="
M871.947021,490.122009 
	C859.072998,493.676025 848.021912,491.139862 839.309509,481.438843 
	C831.105164,472.303467 828.794922,461.593353 833.269775,449.902863 
	C838.014587,437.506958 847.385376,430.788544 860.352478,429.339172 
	C873.460144,427.874054 887.723694,437.896698 891.762329,450.882904 
	C896.181763,465.093384 890.286316,480.610596 877.775452,487.545013 
	C876.038086,488.507996 874.148987,489.197266 871.947021,490.122009 
z"/>
<path fill="#889CA7" opacity="1.000000" stroke="none" 
	d="
M843.555908,353.418701 
	C854.608276,347.791107 865.972351,349.041077 873.545166,356.479858 
	C881.031433,363.833557 883.109192,374.981720 878.687805,384.073212 
	C874.244751,393.209229 864.498779,398.682922 854.102661,397.881287 
	C844.381226,397.131714 836.098328,390.347229 833.005249,380.600464 
	C830.117126,371.499664 833.524902,361.316254 841.640015,354.814362 
	C842.159180,354.398376 842.707153,354.018280 843.555908,353.418701 
z"/>
<path fill="#899DA7" opacity="1.000000" stroke="none" 
	d="
M598.137329,896.080078 
	C600.644165,892.803406 603.388062,891.087585 606.789185,893.925781 
	C609.643799,896.307983 609.253601,899.198181 606.959045,901.836060 
	C593.996521,916.738708 578.679932,928.096680 559.187439,932.905334 
	C551.963135,934.687561 547.160156,931.274231 547.046509,923.868774 
	C546.770691,905.891846 546.958496,887.908020 546.921204,869.927063 
	C546.914001,866.466675 548.639587,864.369812 551.957031,864.403381 
	C555.545105,864.439575 557.093689,866.727783 557.069702,870.383850 
	C556.971313,885.380554 556.993469,900.378174 556.994324,915.375427 
	C556.994690,922.799133 557.466492,923.283630 564.212585,920.608459 
	C577.445679,915.360901 588.754822,907.321716 598.137329,896.080078 
z"/>
<path fill="#FC5B59" opacity="1.000000" stroke="none" 
	d="
M443.730652,930.303833 
	C433.797546,924.132385 431.210876,915.934753 435.675201,905.763123 
	C437.085876,902.548950 439.137085,900.115051 442.940125,901.620850 
	C446.514526,903.036133 446.331360,905.888000 445.165375,909.136475 
	C442.256897,917.239624 444.384247,921.665649 453.035797,922.328857 
	C464.901215,923.238586 476.876068,922.730591 488.804230,922.792053 
	C489.790985,922.797119 490.782227,922.529785 491.766205,922.359070 
	C495.435730,921.722412 498.739471,922.137024 499.256653,926.596436 
	C499.720184,930.592896 497.019501,932.330139 493.442627,932.559021 
	C483.657745,933.184875 473.847168,934.242676 464.077301,933.982605 
	C457.379517,933.804382 450.732819,931.706787 443.730652,930.303833 
z"/>
<path fill="#879BA6" opacity="1.000000" stroke="none" 
	d="
M780.300781,915.450928 
	C791.476685,908.342651 800.130249,899.293945 806.574768,888.164917 
	C808.385620,885.037842 810.273682,882.344238 814.371887,884.371521 
	C817.819519,886.076965 818.171265,889.259155 815.408569,893.746033 
	C802.416138,914.847717 784.221008,928.811646 759.788208,934.240051 
	C756.120422,935.054871 753.292664,934.216614 752.405212,930.448486 
	C751.547791,926.807739 753.998901,925.230164 757.200317,924.114014 
	C764.852966,921.445984 772.408325,918.499023 780.300781,915.450928 
z"/>
<path fill="#899DA7" opacity="1.000000" stroke="none" 
	d="
M692.087708,918.085388 
	C685.777466,923.455750 679.708862,928.569336 673.588318,933.619934 
	C672.841431,934.236328 671.827454,934.541565 670.916870,934.944885 
	C667.958496,936.255188 665.197021,936.133362 663.674744,932.943176 
	C662.086609,929.614685 664.074707,927.639343 666.946899,926.280212 
	C675.593750,922.188782 683.002747,916.539673 687.290039,907.841370 
	C690.135376,902.068665 691.926453,895.783325 694.369446,889.800903 
	C695.083496,888.052490 696.084595,885.982239 697.569214,885.126465 
	C698.757263,884.441589 701.475403,884.780151 702.428894,885.741272 
	C703.566467,886.888123 704.293213,889.365784 703.905518,890.950745 
	C701.562561,900.528381 698.525757,909.874023 692.087708,918.085388 
z"/>
<path fill="#889CA7" opacity="1.000000" stroke="none" 
	d="
M493.007629,867.957031 
	C493.531799,870.482361 494.716797,873.479309 493.703735,874.841003 
	C492.678436,876.219055 489.305878,876.767517 487.258331,876.320251 
	C473.582245,873.333496 459.878693,873.282593 446.132629,875.355103 
	C442.709381,875.871338 439.413879,876.235474 438.547882,872.111389 
	C437.648682,867.829285 440.750305,866.150940 444.383392,865.688660 
	C460.596649,863.625671 476.789581,862.469055 493.007629,867.957031 
z"/>
<path fill="#FD5251" opacity="1.000000" stroke="none" 
	d="
M590.684204,321.602661 
	C589.551575,322.180756 588.035278,322.946991 586.518188,322.948547 
	C527.315796,323.009125 468.113342,323.002716 408.910889,322.979309 
	C407.777710,322.978882 406.644653,322.669922 405.232727,322.181641 
	C407.420227,321.581146 409.886230,321.064148 412.352783,321.061737 
	C469.513336,321.005219 526.673889,320.999756 583.834473,321.012268 
	C585.989746,321.012756 588.144958,321.287354 590.684204,321.602661 
z"/>
<path fill="#889CA7" opacity="1.000000" stroke="none" 
	d="
M769.631104,892.392822 
	C772.094910,895.179688 772.191223,897.726929 769.757629,900.132263 
	C767.321472,902.540161 765.045959,901.330505 762.597778,899.864990 
	C758.332764,897.311951 753.699646,895.317932 749.669128,892.457764 
	C748.134521,891.368958 746.752686,888.242615 747.210938,886.567200 
	C748.030945,883.569153 750.958435,882.340942 754.047546,883.905151 
	C759.219299,886.524231 764.268860,889.384583 769.631104,892.392822 
z"/>
<path fill="#899DA7" opacity="1.000000" stroke="none" 
	d="
M762.069702,864.867188 
	C766.924133,867.526794 771.420654,870.053894 775.930359,872.557251 
	C778.927795,874.221191 779.929077,876.709839 778.174683,879.638123 
	C776.392151,882.613342 773.664001,882.614990 770.787109,881.000305 
	C766.579590,878.638794 762.380005,876.257690 758.100098,874.032959 
	C755.526001,872.694946 753.287659,871.134460 754.527771,867.906738 
	C755.765137,864.686218 758.192871,863.234924 762.069702,864.867188 
z"/>
<path fill="#899DA7" opacity="1.000000" stroke="none" 
	d="
M660.541077,891.441284 
	C661.877808,894.534729 663.635193,897.218628 664.005920,900.082031 
	C664.253540,901.994629 662.528076,904.162720 661.685669,906.216553 
	C659.782776,905.367920 657.194824,905.019104 656.129700,903.559326 
	C654.311401,901.067139 653.470886,897.867981 652.178040,894.984436 
	C650.824341,891.965149 649.449341,888.673828 653.393311,886.799194 
	C657.400818,884.894348 658.993164,888.107117 660.541077,891.441284 
z"/>
<path fill="#899DA7" opacity="1.000000" stroke="none" 
	d="
M679.181152,893.722412 
	C679.730286,895.653015 680.853271,897.528198 680.357483,898.742615 
	C679.710876,900.326477 677.867676,902.274658 676.379272,902.419434 
	C674.924316,902.560913 672.642578,900.985168 671.828491,899.540588 
	C670.050781,896.386475 668.488037,892.930969 667.808594,889.411133 
	C667.448242,887.544006 668.524963,884.413757 670.008545,883.402893 
	C672.344727,881.810974 674.709290,883.247925 675.853271,886.060669 
	C676.854431,888.522339 677.970032,890.937439 679.181152,893.722412 
z"/>
<path fill="#899DA7" opacity="1.000000" stroke="none" 
	d="
M802.758850,874.330200 
	C801.850830,873.109619 800.678040,872.264282 800.536316,871.271790 
	C800.297119,869.596191 800.710938,867.827393 800.850159,866.097778 
	C802.607056,866.291199 804.881470,865.868896 806.006226,866.814331 
	C807.963074,868.459351 809.693726,870.765991 810.591919,873.145386 
	C811.231323,874.839172 811.091125,877.812134 809.990234,878.970154 
	C807.792114,881.282288 805.887207,879.227173 804.499939,877.177246 
	C803.945801,876.358337 803.469482,875.486755 802.758850,874.330200 
z"/>
<path fill="#899DA7" opacity="1.000000" stroke="none" 
	d="
M820.675781,872.588013 
	C818.807678,872.686890 816.629395,873.132874 815.708252,872.256958 
	C813.463379,870.122253 811.614197,867.487732 810.000427,864.816101 
	C809.392212,863.809204 809.351501,861.763000 809.996704,860.883728 
	C810.696472,859.930054 812.573303,859.223999 813.802917,859.391663 
	C817.336792,859.873474 822.050842,868.755798 820.675781,872.588013 
z"/>
</svg>