<svg version="1.1" id="Layer_1" xmlns="http://www.w3.org/2000/svg" xmlns:xlink="http://www.w3.org/1999/xlink" x="0px" y="0px"
	 width="100%" viewBox="0 0 1254 563" enable-background="new 0 0 1254 563" xml:space="preserve">
<path fill="#FEFEFE" opacity="1.000000" stroke="none" 
	d="
M947.000000,564.000000 
	C631.333374,564.000000 316.166718,564.000000 1.000042,564.000000 
	C1.000028,376.333374 1.000028,188.666733 1.000014,1.000068 
	C418.999969,1.000045 836.999939,1.000045 1255.000000,1.000023 
	C1255.000000,188.666611 1255.000000,376.333221 1255.000000,563.999878 
	C1152.500000,564.000000 1050.000000,564.000000 947.000000,564.000000 
M584.938477,354.002930 
	C584.938477,354.002930 584.797607,353.850464 584.190002,354.252716 
	C583.481384,357.454193 582.164612,360.653900 582.155457,363.857391 
	C582.023315,410.305969 582.055603,456.755096 582.105896,503.204041 
	C582.107971,505.139954 582.671204,507.075256 582.977051,509.756378 
	C584.334106,512.380554 585.259338,515.373657 587.128052,517.560608 
	C593.051086,524.492493 601.566406,526.508728 609.706055,523.395752 
	C617.716675,520.332153 622.712585,513.144226 622.772583,503.965302 
	C622.892212,485.661469 622.839905,467.356445 622.840515,449.051910 
	C622.841492,420.596649 622.853882,392.141327 622.803955,363.686157 
	C622.788574,354.920288 619.011169,348.257141 610.977966,344.474274 
	C603.553467,340.978027 596.475830,341.869171 589.366394,347.160919 
	C588.274719,348.442932 587.182983,349.724945 585.885010,351.275146 
	C585.885010,351.275146 585.830933,351.609192 585.334106,352.041656 
	C585.146729,352.654083 584.959351,353.266510 584.938477,354.002930 
M528.696106,431.067566 
	C528.742920,417.982117 528.855591,404.896484 528.815002,391.811310 
	C528.784241,381.886505 528.558350,371.962280 528.623657,361.301483 
	C528.204468,349.518066 517.545715,341.905640 507.489899,342.544189 
	C495.268463,343.320312 488.145996,351.644318 488.139038,364.610199 
	C488.127045,386.890900 488.053619,409.171936 488.148895,431.452209 
	C488.197540,442.828308 496.669250,450.997467 508.199127,451.142731 
	C519.891602,451.290009 527.956909,443.646942 528.696106,431.067566 
M670.542786,454.610138 
	C672.974854,455.026550 675.406372,455.801605 677.839172,455.805908 
	C718.370239,455.877899 758.901550,455.883667 799.432556,455.778046 
	C801.977600,455.771423 804.519897,454.725677 807.760864,454.041931 
	C816.395386,449.505554 820.017761,442.007141 817.913208,433.026428 
	C816.002258,424.871521 808.596985,419.219635 799.384399,419.174011 
	C783.072388,419.093262 766.759644,419.156433 750.447205,419.157440 
	C725.978577,419.158966 701.509644,419.098389 677.041382,419.191284 
	C668.148560,419.225037 660.333191,425.666168 659.040527,433.610840 
	C657.457886,443.337372 661.360046,450.645752 670.542786,454.610138 
M524.370972,485.407013 
	C523.711060,485.345856 523.051086,485.231354 522.391174,485.231171 
	C485.687134,485.221313 448.983063,485.215515 412.279053,485.245880 
	C411.158600,485.246826 410.038452,485.634979 408.129456,485.813019 
	C396.798126,487.988098 391.033844,495.562042 391.875305,507.169922 
	C392.584961,516.959473 400.463226,524.072632 411.268555,524.097046 
	C449.038422,524.182495 486.808960,524.178406 524.578613,524.037659 
	C535.644592,523.996399 543.827148,515.465149 543.829468,504.627594 
	C543.831604,494.605103 535.630005,486.340088 524.370972,485.407013 
M713.541992,301.345459 
	C713.718872,295.873596 714.046997,290.401794 714.049561,284.929871 
	C714.079407,221.518616 714.111267,158.107224 713.930054,94.696465 
	C713.918884,90.770103 712.128174,86.848831 711.009460,82.253319 
	C707.460632,76.716805 702.434448,73.429291 695.871704,72.969475 
	C683.330566,72.090775 674.194946,81.040405 674.184814,94.184692 
	C674.147705,142.278931 674.168091,190.373199 674.167542,238.467453 
	C674.167297,257.771698 674.083252,277.076477 674.203491,296.380005 
	C674.270081,307.070923 681.975891,315.387085 692.549377,316.624573 
	C701.522156,317.674713 710.722900,311.135376 713.541992,301.345459 
M872.934204,496.363617 
	C872.355103,495.756805 871.775940,495.150024 871.103149,494.237396 
	C871.103149,494.237396 870.873352,494.014862 870.595581,493.406036 
	C866.641357,489.241486 861.613586,488.049164 856.097961,488.054871 
	C838.801392,488.072723 821.504883,488.032715 804.208313,488.033936 
	C761.964783,488.036957 719.721252,488.064087 677.477722,488.041229 
	C672.666443,488.038635 668.249207,488.853119 664.292297,493.042450 
	C658.065063,498.972321 657.190918,506.288269 660.220093,513.715027 
	C663.303162,521.274109 669.738647,524.376526 677.907471,524.175903 
	C685.236023,523.996033 692.572571,524.144714 699.905579,524.142456 
	C752.069885,524.126343 804.234253,524.088440 856.398560,524.119751 
	C862.190735,524.123230 867.241211,522.717529 871.632935,517.728271 
	C876.715149,511.251801 877.257202,504.259613 873.198914,497.264130 
	C873.198914,497.264130 873.035583,496.996338 872.934204,496.363617 
M604.587585,74.302925 
	C597.316467,72.804321 590.079102,70.249329 582.767578,70.015610 
	C564.641846,69.436226 546.482239,69.951530 528.336243,69.965820 
	C489.713837,69.996239 451.090820,69.882408 412.469818,70.120346 
	C407.283997,70.152290 402.108551,71.878296 396.182983,72.871460 
	C373.834564,80.912460 360.200531,104.525238 364.967926,126.932869 
	C369.916504,150.192108 389.014038,165.823029 412.834015,165.846161 
	C470.166718,165.901810 527.499634,165.904739 584.832031,165.761917 
	C589.424133,165.750488 594.163208,164.964783 598.577576,163.666977 
	C617.877869,157.992706 631.737793,140.410645 632.830750,120.730888 
	C633.893433,101.596649 622.117859,82.110893 604.587585,74.302925 
M424.500153,297.139923 
	C438.989105,297.132599 453.478027,297.121307 467.966980,297.118713 
	C506.936859,297.111694 545.907166,297.214172 584.876465,297.066589 
	C611.058716,296.967468 631.841614,276.898346 632.838074,251.153946 
	C633.879883,224.240250 611.984192,201.452957 584.481079,201.363144 
	C532.022217,201.191803 479.562439,201.265152 427.103088,201.326782 
	C419.460663,201.335754 411.735168,201.218750 404.192627,202.233856 
	C383.044281,205.080017 367.126984,222.656067 364.286041,245.526215 
	C361.967194,264.193665 374.693848,285.032715 392.602051,293.027496 
	C402.635498,297.506714 413.033295,297.068817 424.500153,297.139923 
M808.791321,384.518738 
	C817.095459,379.451508 820.711914,371.344391 818.385437,363.011322 
	C815.879944,354.037048 808.921509,348.856018 799.061340,348.843658 
	C773.732117,348.811890 748.402832,348.850677 723.073547,348.864258 
	C707.576111,348.872559 692.075867,348.707581 676.582214,348.955109 
	C664.533508,349.147614 656.396667,359.826385 658.921509,371.565216 
	C660.993469,381.198212 668.182373,386.764740 678.906372,386.776428 
	C718.566650,386.819641 758.226990,386.845886 797.886902,386.718353 
	C801.295410,386.707397 804.700134,385.516357 808.791321,384.518738 
M873.068298,298.433655 
	C872.390930,286.354980 865.685059,279.991028 853.509399,279.964508 
	C834.372620,279.922821 815.235718,279.913666 796.098877,279.913452 
	C785.448914,279.913330 774.793518,279.757599 764.150574,280.043701 
	C754.424561,280.305206 747.214478,288.264832 747.218933,298.141602 
	C747.223389,307.983734 754.501038,316.041809 764.160828,316.142639 
	C793.771423,316.451630 823.384827,316.628632 852.996948,316.608185 
	C864.710938,316.600067 871.783142,310.181458 873.068298,298.433655 
M429.318542,357.575500 
	C425.768219,347.014221 417.190674,341.160004 407.475983,342.667847 
	C396.218536,344.415161 389.896820,351.882629 389.862244,363.791473 
	C389.797455,386.115021 389.694092,408.440887 389.988525,430.760742 
	C390.040680,434.714050 391.160919,439.105743 393.155090,442.489197 
	C397.663574,450.138733 407.308197,453.124542 415.959503,450.463409 
	C424.288330,447.901459 429.831543,440.676117 429.909637,431.806000 
	C430.035797,417.479797 430.025940,403.151733 429.972931,388.824829 
	C429.935364,378.673859 429.731934,368.523529 429.318542,357.575500 
M855.070679,381.501831 
	C855.073914,398.471191 854.995178,415.441101 855.109497,432.409729 
	C855.184387,443.522705 863.059998,451.211456 874.066467,451.247101 
	C885.145935,451.283020 892.962280,443.687408 893.003845,432.534698 
	C893.084412,410.907501 893.085022,389.279510 892.982849,367.652435 
	C892.932617,357.009552 885.164673,349.107971 874.944580,348.942352 
	C863.792664,348.761658 855.639526,356.116028 855.117126,367.029022 
	C854.902649,371.510803 855.074219,376.011078 855.070679,381.501831 
M865.051575,240.633316 
	C878.907227,238.635056 888.551514,231.305679 892.040649,217.582245 
	C895.191772,205.188293 892.025940,194.278336 882.003479,185.699432 
	C871.948669,177.092804 858.127014,175.958923 846.296082,182.974869 
	C835.262695,189.517868 829.073425,203.677155 831.889709,215.932785 
	C835.460327,231.471252 847.274414,240.537491 865.051575,240.633316 
M863.330933,99.867867 
	C852.004150,96.912666 841.475647,100.952499 835.662842,110.484161 
	C830.059448,119.672401 831.011353,130.721405 838.094421,138.706650 
	C844.834167,146.304794 855.581970,149.003189 864.893677,145.434967 
	C874.683960,141.683350 880.931458,132.925018 880.945068,122.932877 
	C880.959290,112.485565 874.917603,104.263687 863.330933,99.867867 
z"/>
<path fill="#FD5251" opacity="1.000000" stroke="none" 
	d="
M424.000244,297.136536 
	C413.033295,297.068817 402.635498,297.506714 392.602051,293.027496 
	C374.693848,285.032715 361.967194,264.193665 364.286041,245.526215 
	C367.126984,222.656067 383.044281,205.080017 404.192627,202.233856 
	C411.735168,201.218750 419.460663,201.335754 427.103088,201.326782 
	C479.562439,201.265152 532.022217,201.191803 584.481079,201.363144 
	C611.984192,201.452957 633.879883,224.240250 632.838074,251.153946 
	C631.841614,276.898346 611.058716,296.967468 584.876465,297.066589 
	C545.907166,297.214172 506.936859,297.111694 467.966980,297.118713 
	C453.478027,297.121307 438.989105,297.132599 424.000244,297.136536 
z"/>
<path fill="#FD5251" opacity="1.000000" stroke="none" 
	d="
M605.076111,74.803513 
	C622.117859,82.110893 633.893433,101.596649 632.830750,120.730888 
	C631.737793,140.410645 617.877869,157.992706 598.577576,163.666977 
	C594.163208,164.964783 589.424133,165.750488 584.832031,165.761917 
	C527.499634,165.904739 470.166718,165.901810 412.834015,165.846161 
	C389.014038,165.823029 369.916504,150.192108 364.967926,126.932869 
	C360.200531,104.525238 373.834564,80.912460 396.773010,73.129990 
	C402.707275,73.259277 408.051117,73.047081 413.395935,73.018211 
	C424.287476,72.959381 435.179565,72.998886 446.071411,72.998741 
	C478.842133,72.998322 511.612823,73.001266 544.383545,72.993111 
	C547.320801,72.992378 550.257874,72.899910 553.195251,72.886078 
	C561.837830,72.845383 570.497803,73.136963 579.116028,72.663017 
	C583.543213,72.419548 587.498291,72.216507 591.067444,75.412941 
	C592.155884,76.387711 594.091309,77.040192 595.528259,76.875488 
	C598.747742,76.506477 601.897766,75.531647 605.076111,74.803513 
z"/>
<path fill="#879BA5" opacity="1.000000" stroke="none" 
	d="
M871.029236,518.065186 
	C867.241211,522.717529 862.190735,524.123230 856.398560,524.119751 
	C804.234253,524.088440 752.069885,524.126343 699.905579,524.142456 
	C692.572571,524.144714 685.236023,523.996033 677.907471,524.175903 
	C669.738647,524.376526 663.303162,521.274109 660.220093,513.715027 
	C657.190918,506.288269 658.065063,498.972321 664.650757,493.227966 
	C665.973022,496.033600 667.539368,497.048126 668.782104,493.890167 
	C670.292480,490.052216 672.741272,490.176819 675.973694,490.928925 
	C677.794495,491.352539 679.777405,491.173004 681.683105,491.118256 
	C685.246399,491.015869 688.905762,490.208069 692.345459,490.778168 
	C697.863342,491.692749 703.171448,493.633484 708.912109,491.910309 
	C711.245483,491.209900 713.816467,490.993103 716.267212,491.052856 
	C722.226562,491.198181 728.176514,491.690277 734.134521,491.937927 
	C740.453979,492.200653 746.778442,492.340668 753.100586,492.538971 
	C753.909119,492.564301 754.722778,492.702972 755.523865,492.646057 
	C767.475830,491.796387 779.414246,490.551819 791.380371,490.174408 
	C800.590271,489.883942 809.833862,490.896515 819.063416,490.917786 
	C826.290344,490.934479 833.524841,490.009186 840.743408,490.149841 
	C843.363647,490.200897 845.934387,492.161072 848.553040,493.185516 
	C849.930115,493.724243 851.363708,494.522980 852.768616,494.516449 
	C858.804138,494.488403 864.838562,494.205139 870.873352,494.014862 
	C870.873352,494.014862 871.103149,494.237396 871.123474,494.757172 
	C871.774353,495.850098 872.404968,496.423218 873.035583,496.996338 
	C873.035583,496.996338 873.198914,497.264130 873.120728,497.809509 
	C870.390137,500.845398 867.737671,503.335876 865.019897,505.887726 
	C872.564087,509.983734 872.564087,509.983734 871.029236,518.065186 
z"/>
<path fill="#899CA7" opacity="1.000000" stroke="none" 
	d="
M590.004089,347.011475 
	C596.475830,341.869171 603.553467,340.978027 610.977966,344.474274 
	C619.011169,348.257141 622.788574,354.920288 622.803955,363.686157 
	C622.853882,392.141327 622.841492,420.596649 622.840515,449.051910 
	C622.839905,467.356445 622.892212,485.661469 622.772583,503.965302 
	C622.712585,513.144226 617.716675,520.332153 609.706055,523.395752 
	C601.566406,526.508728 593.051086,524.492493 587.128052,517.560608 
	C585.259338,515.373657 584.334106,512.380554 583.271851,509.088043 
	C583.681152,508.109558 583.894226,507.799988 583.896057,507.489136 
	C584.132568,468.102051 584.351807,428.714874 584.576294,389.327698 
	C584.643738,377.501923 584.723511,365.676208 584.797607,353.850464 
	C584.797607,353.850464 584.938477,354.002930 585.171387,353.791809 
	C585.546509,352.923553 585.688721,352.266357 585.830933,351.609192 
	C585.830933,351.609192 585.885010,351.275146 586.321899,351.099609 
	C587.840576,349.619873 588.922302,348.315674 590.004089,347.011475 
z"/>
<path fill="#879BA5" opacity="1.000000" stroke="none" 
	d="
M713.077820,302.034149 
	C710.722900,311.135376 701.522156,317.674713 692.549377,316.624573 
	C681.975891,315.387085 674.270081,307.070923 674.203491,296.380005 
	C674.083252,277.076477 674.167297,257.771698 674.167542,238.467453 
	C674.168091,190.373199 674.147705,142.278931 674.184814,94.184692 
	C674.194946,81.040405 683.330566,72.090775 695.871704,72.969475 
	C702.434448,73.429291 707.460632,76.716805 710.758911,82.729515 
	C705.423279,85.913033 700.614990,89.138474 698.996521,94.959961 
	C697.750366,99.442406 697.131714,103.970222 692.479126,106.452332 
	C692.170105,106.617180 692.438843,107.864960 692.438843,108.767311 
	C695.023499,108.171303 697.275879,107.651924 700.453369,106.919228 
	C699.301208,109.814697 698.664673,111.414284 697.888794,113.364235 
	C703.114380,114.107391 703.663208,117.231720 701.949341,120.958374 
	C699.415039,126.469124 699.773865,131.717804 701.773743,137.336273 
	C703.178284,141.282532 705.126526,145.921707 699.718567,148.941833 
	C699.473999,149.078430 699.188110,149.574341 699.261597,149.783112 
	C700.748840,154.006271 699.125854,157.852020 698.513733,161.972275 
	C697.844849,166.474380 700.013855,171.382660 700.833984,176.133224 
	C701.018921,177.204681 700.740845,178.356079 700.663208,179.687897 
	C698.665344,179.687897 696.975525,179.687897 695.212891,179.687897 
	C694.628235,183.279938 695.752319,185.125122 699.184998,186.198059 
	C700.655945,186.657791 702.370972,188.966782 702.496948,190.552917 
	C702.762512,193.896423 702.053162,197.317368 701.676331,201.445694 
	C701.256897,202.146378 699.239258,203.986801 699.520264,205.355240 
	C700.173157,208.534912 701.934998,211.486862 703.193420,214.405991 
	C705.819153,214.086121 708.702271,213.734894 711.578857,213.384445 
	C712.992554,226.354431 710.924805,229.928558 702.402283,229.739746 
	C701.966919,231.307083 700.956360,232.985138 701.191284,234.465530 
	C701.907898,238.981003 699.312561,241.199783 696.231995,243.696518 
	C690.555237,248.297516 690.703247,248.470245 695.478333,253.291443 
	C695.668762,253.483704 695.620667,253.912231 695.593811,253.776642 
	C694.529541,256.063904 693.624451,258.009125 692.659180,260.083618 
	C694.885376,260.847626 696.320740,261.340210 698.004822,261.918152 
	C696.072815,263.728333 694.506409,265.195953 692.862122,266.736603 
	C695.004944,268.513672 696.643921,269.872864 698.119812,271.096802 
	C696.026855,275.548218 693.492371,279.536957 700.641663,280.278870 
	C701.155762,280.332214 701.882141,281.784424 701.861938,282.569489 
	C701.841736,283.350586 701.111145,284.677460 700.508362,284.791168 
	C695.185730,285.795624 696.989929,289.035248 698.820251,291.308807 
	C701.149170,294.201538 704.118408,296.642151 707.070496,298.945892 
	C708.814331,300.306732 711.058594,301.026245 713.077820,302.034149 
z"/>
<path fill="#879BA6" opacity="1.000000" stroke="none" 
	d="
M808.448975,384.696106 
	C804.700134,385.516357 801.295410,386.707397 797.886902,386.718353 
	C758.226990,386.845886 718.566650,386.819641 678.906372,386.776428 
	C668.182373,386.764740 660.993469,381.198212 658.921509,371.565216 
	C656.396667,359.826385 664.533508,349.147614 676.582214,348.955109 
	C692.075867,348.707581 707.576111,348.872559 723.073547,348.864258 
	C748.402832,348.850677 773.732117,348.811890 799.061340,348.843658 
	C808.921509,348.856018 815.879944,354.037048 818.385437,363.011322 
	C820.711914,371.344391 817.095459,379.451508 808.448975,384.696106 
z"/>
<path fill="#879BA5" opacity="1.000000" stroke="none" 
	d="
M525.116272,485.769653 
	C535.630005,486.340088 543.831604,494.605103 543.829468,504.627594 
	C543.827148,515.465149 535.644592,523.996399 524.578613,524.037659 
	C486.808960,524.178406 449.038422,524.182495 411.268555,524.097046 
	C400.463226,524.072632 392.584961,516.959473 391.875305,507.169922 
	C391.033844,495.562042 396.798126,487.988098 408.807678,486.152344 
	C410.450867,486.660736 411.415741,486.977051 412.380829,486.977722 
	C448.606445,487.003418 484.832092,487.013306 521.057556,486.948578 
	C522.411133,486.946167 523.763428,486.179932 525.116272,485.769653 
z"/>
<path fill="#889BA6" opacity="1.000000" stroke="none" 
	d="
M669.980469,454.100006 
	C661.360046,450.645752 657.457886,443.337372 659.040527,433.610840 
	C660.333191,425.666168 668.148560,419.225037 677.041382,419.191284 
	C701.509644,419.098389 725.978577,419.158966 750.447205,419.157440 
	C766.759644,419.156433 783.072388,419.093262 799.384399,419.174011 
	C808.596985,419.219635 816.002258,424.871521 817.913208,433.026428 
	C820.017761,442.007141 816.395386,449.505554 807.174927,453.814911 
	C802.484863,453.729370 798.380859,453.987244 794.276550,453.993317 
	C768.513062,454.031525 742.747864,454.194305 716.986816,453.945435 
	C701.930115,453.800049 686.880615,452.947754 671.824951,452.516724 
	C671.225708,452.499542 670.596008,453.548035 669.980469,454.100006 
z"/>
<path fill="#869AA5" opacity="1.000000" stroke="none" 
	d="
M873.066284,298.867493 
	C871.783142,310.181458 864.710938,316.600067 852.996948,316.608185 
	C823.384827,316.628632 793.771423,316.451630 764.160828,316.142639 
	C754.501038,316.041809 747.223389,307.983734 747.218933,298.141602 
	C747.214478,288.264832 754.424561,280.305206 764.150574,280.043701 
	C774.793518,279.757599 785.448914,279.913330 796.098877,279.913452 
	C815.235718,279.913666 834.372620,279.922821 853.509399,279.964508 
	C865.685059,279.991028 872.390930,286.354980 873.066284,298.867493 
z"/>
<path fill="#889BA6" opacity="1.000000" stroke="none" 
	d="
M429.460541,357.974182 
	C429.731934,368.523529 429.935364,378.673859 429.972931,388.824829 
	C430.025940,403.151733 430.035797,417.479797 429.909637,431.806000 
	C429.831543,440.676117 424.288330,447.901459 415.959503,450.463409 
	C407.308197,453.124542 397.663574,450.138733 393.155090,442.489197 
	C391.160919,439.105743 390.040680,434.714050 389.988525,430.760742 
	C389.694092,408.440887 389.797455,386.115021 389.862244,363.791473 
	C389.896820,351.882629 396.218536,344.415161 407.475983,342.667847 
	C417.190674,341.160004 425.768219,347.014221 429.460541,357.974182 
z"/>
<path fill="#889CA7" opacity="1.000000" stroke="none" 
	d="
M528.434387,431.966766 
	C527.956909,443.646942 519.891602,451.290009 508.199127,451.142731 
	C496.669250,450.997467 488.197540,442.828308 488.148895,431.452209 
	C488.053619,409.171936 488.127045,386.890900 488.139038,364.610199 
	C488.145996,351.644318 495.268463,343.320312 507.489899,342.544189 
	C517.545715,341.905640 528.204468,349.518066 528.191162,361.820557 
	C527.506714,363.088928 527.035950,363.837799 527.034546,364.587585 
	C526.993652,385.946503 526.978699,407.305573 527.059814,428.664215 
	C527.063965,429.766785 527.955811,430.865997 528.434387,431.966766 
z"/>
<path fill="#889BA6" opacity="1.000000" stroke="none" 
	d="
M855.070435,381.002380 
	C855.074219,376.011078 854.902649,371.510803 855.117126,367.029022 
	C855.639526,356.116028 863.792664,348.761658 874.944580,348.942352 
	C885.164673,349.107971 892.932617,357.009552 892.982849,367.652435 
	C893.085022,389.279510 893.084412,410.907501 893.003845,432.534698 
	C892.962280,443.687408 885.145935,451.283020 874.066467,451.247101 
	C863.059998,451.211456 855.184387,443.522705 855.109497,432.409729 
	C854.995178,415.441101 855.073914,398.471191 855.070435,381.002380 
z"/>
<path fill="#889CA7" opacity="1.000000" stroke="none" 
	d="
M864.627563,240.682022 
	C847.274414,240.537491 835.460327,231.471252 831.889709,215.932785 
	C829.073425,203.677155 835.262695,189.517868 846.296082,182.974869 
	C858.127014,175.958923 871.948669,177.092804 882.003479,185.699432 
	C892.025940,194.278336 895.191772,205.188293 892.040649,217.582245 
	C888.551514,231.305679 878.907227,238.635056 864.627563,240.682022 
z"/>
<path fill="#869AA5" opacity="1.000000" stroke="none" 
	d="
M713.309937,301.689819 
	C711.058594,301.026245 708.814331,300.306732 707.070496,298.945892 
	C704.118408,296.642151 701.149170,294.201538 698.820251,291.308807 
	C696.989929,289.035248 695.185730,285.795624 700.508362,284.791168 
	C701.111145,284.677460 701.841736,283.350586 701.861938,282.569489 
	C701.882141,281.784424 701.155762,280.332214 700.641663,280.278870 
	C693.492371,279.536957 696.026855,275.548218 698.119812,271.096802 
	C696.643921,269.872864 695.004944,268.513672 692.862122,266.736603 
	C694.506409,265.195953 696.072815,263.728333 698.004822,261.918152 
	C696.320740,261.340210 694.885376,260.847626 692.659180,260.083618 
	C693.624451,258.009125 694.529541,256.063904 695.593811,253.776642 
	C695.620667,253.912231 695.668762,253.483704 695.478333,253.291443 
	C690.703247,248.470245 690.555237,248.297516 696.231995,243.696518 
	C699.312561,241.199783 701.907898,238.981003 701.191284,234.465530 
	C700.956360,232.985138 701.966919,231.307083 702.402283,229.739746 
	C710.924805,229.928558 712.992554,226.354431 711.578857,213.384445 
	C708.702271,213.734894 705.819153,214.086121 703.193420,214.405991 
	C701.934998,211.486862 700.173157,208.534912 699.520264,205.355240 
	C699.239258,203.986801 701.256897,202.146378 701.676331,201.445694 
	C702.053162,197.317368 702.762512,193.896423 702.496948,190.552917 
	C702.370972,188.966782 700.655945,186.657791 699.184998,186.198059 
	C695.752319,185.125122 694.628235,183.279938 695.212891,179.687897 
	C696.975525,179.687897 698.665344,179.687897 700.663208,179.687897 
	C700.740845,178.356079 701.018921,177.204681 700.833984,176.133224 
	C700.013855,171.382660 697.844849,166.474380 698.513733,161.972275 
	C699.125854,157.852020 700.748840,154.006271 699.261597,149.783112 
	C699.188110,149.574341 699.473999,149.078430 699.718567,148.941833 
	C705.126526,145.921707 703.178284,141.282532 701.773743,137.336273 
	C699.773865,131.717804 699.415039,126.469124 701.949341,120.958374 
	C703.663208,117.231720 703.114380,114.107391 697.888794,113.364235 
	C698.664673,111.414284 699.301208,109.814697 700.453369,106.919228 
	C697.275879,107.651924 695.023499,108.171303 692.438843,108.767311 
	C692.438843,107.864960 692.170105,106.617180 692.479126,106.452332 
	C697.131714,103.970222 697.750366,99.442406 698.996521,94.959961 
	C700.614990,89.138474 705.423279,85.913033 710.836914,83.065445 
	C712.128174,86.848831 713.918884,90.770103 713.930054,94.696465 
	C714.111267,158.107224 714.079407,221.518616 714.049561,284.929871 
	C714.046997,290.401794 713.718872,295.873596 713.309937,301.689819 
M710.269348,113.096153 
	C710.767822,113.041290 711.266357,112.986420 711.764832,112.931557 
	C711.650146,112.485275 711.535522,112.038994 711.420837,111.592705 
	C710.995178,111.894737 710.569580,112.196770 710.269348,113.096153 
M710.433289,286.704437 
	C710.705139,286.989319 710.977051,287.274170 711.248962,287.559052 
	C711.366821,287.446289 711.593384,287.241791 711.586853,287.233978 
	C711.333191,286.933502 711.058105,286.651062 710.433289,286.704437 
M706.566589,118.295586 
	C706.294739,118.010757 706.022827,117.725922 705.750916,117.441055 
	C705.633057,117.553764 705.406433,117.758270 705.412964,117.765968 
	C705.666748,118.066391 705.941650,118.348892 706.566589,118.295586 
z"/>
<path fill="#889CA7" opacity="1.000000" stroke="none" 
	d="
M863.730835,99.959442 
	C874.917603,104.263687 880.959290,112.485565 880.945068,122.932877 
	C880.931458,132.925018 874.683960,141.683350 864.893677,145.434967 
	C855.581970,149.003189 844.834167,146.304794 838.094421,138.706650 
	C831.011353,130.721405 830.059448,119.672401 835.662842,110.484161 
	C841.475647,100.952499 852.004150,96.912666 863.730835,99.959442 
z"/>
<path fill="#92A3AD" opacity="1.000000" stroke="none" 
	d="
M870.734497,493.710449 
	C864.838562,494.205139 858.804138,494.488403 852.768616,494.516449 
	C851.363708,494.522980 849.930115,493.724243 848.553040,493.185516 
	C845.934387,492.161072 843.363647,490.200897 840.743408,490.149841 
	C833.524841,490.009186 826.290344,490.934479 819.063416,490.917786 
	C809.833862,490.896515 800.590271,489.883942 791.380371,490.174408 
	C779.414246,490.551819 767.475830,491.796387 755.523865,492.646057 
	C754.722778,492.702972 753.909119,492.564301 753.100586,492.538971 
	C746.778442,492.340668 740.453979,492.200653 734.134521,491.937927 
	C728.176514,491.690277 722.226562,491.198181 716.267212,491.052856 
	C713.816467,490.993103 711.245483,491.209900 708.912109,491.910309 
	C703.171448,493.633484 697.863342,491.692749 692.345459,490.778168 
	C688.905762,490.208069 685.246399,491.015869 681.683105,491.118256 
	C679.777405,491.173004 677.794495,491.352539 675.973694,490.928925 
	C672.741272,490.176819 670.292480,490.052216 668.782104,493.890167 
	C667.539368,497.048126 665.973022,496.033600 664.950684,493.045105 
	C668.249207,488.853119 672.666443,488.038635 677.477722,488.041229 
	C719.721252,488.064087 761.964783,488.036957 804.208313,488.033936 
	C821.504883,488.032715 838.801392,488.072723 856.097961,488.054871 
	C861.613586,488.049164 866.641357,489.241486 870.734497,493.710449 
z"/>
<path fill="#FB595A" opacity="1.000000" stroke="none" 
	d="
M604.831848,74.553215 
	C601.897766,75.531647 598.747742,76.506477 595.528259,76.875488 
	C594.091309,77.040192 592.155884,76.387711 591.067444,75.412941 
	C587.498291,72.216507 583.543213,72.419548 579.116028,72.663017 
	C570.497803,73.136963 561.837830,72.845383 553.195251,72.886078 
	C550.257874,72.899910 547.320801,72.992378 544.383545,72.993111 
	C511.612823,73.001266 478.842133,72.998322 446.071411,72.998741 
	C435.179565,72.998886 424.287476,72.959381 413.395935,73.018211 
	C408.051117,73.047081 402.707275,73.259277 397.145660,73.104172 
	C402.108551,71.878296 407.283997,70.152290 412.469818,70.120346 
	C451.090820,69.882408 489.713837,69.996239 528.336243,69.965820 
	C546.482239,69.951530 564.641846,69.436226 582.767578,70.015610 
	C590.079102,70.249329 597.316467,72.804321 604.831848,74.553215 
z"/>
<path fill="#92A3AD" opacity="1.000000" stroke="none" 
	d="
M584.493835,354.051575 
	C584.723511,365.676208 584.643738,377.501923 584.576294,389.327698 
	C584.351807,428.714874 584.132568,468.102051 583.896057,507.489136 
	C583.894226,507.799988 583.681152,508.109558 583.269897,508.715271 
	C582.671204,507.075256 582.107971,505.139954 582.105896,503.204041 
	C582.055603,456.755096 582.023315,410.305969 582.155457,363.857391 
	C582.164612,360.653900 583.481384,357.454193 584.493835,354.051575 
z"/>
<path fill="#92A3AD" opacity="1.000000" stroke="none" 
	d="
M670.261597,454.355072 
	C670.596008,453.548035 671.225708,452.499542 671.824951,452.516724 
	C686.880615,452.947754 701.930115,453.800049 716.986816,453.945435 
	C742.747864,454.194305 768.513062,454.031525 794.276550,453.993317 
	C798.380859,453.987244 802.484863,453.729370 806.826233,453.875610 
	C804.519897,454.725677 801.977600,455.771423 799.432556,455.778046 
	C758.901550,455.883667 718.370239,455.877899 677.839172,455.805908 
	C675.406372,455.801605 672.974854,455.026550 670.261597,454.355072 
z"/>
<path fill="#869AA5" opacity="1.000000" stroke="none" 
	d="
M524.743652,485.588318 
	C523.763428,486.179932 522.411133,486.946167 521.057556,486.948578 
	C484.832092,487.013306 448.606445,487.003418 412.380829,486.977722 
	C411.415741,486.977051 410.450867,486.660736 409.202026,486.167114 
	C410.038452,485.634979 411.158600,485.246826 412.279053,485.245880 
	C448.983063,485.215515 485.687134,485.221313 522.391174,485.231171 
	C523.051086,485.231354 523.711060,485.345856 524.743652,485.588318 
z"/>
<path fill="#869AA5" opacity="1.000000" stroke="none" 
	d="
M528.565247,431.517151 
	C527.955811,430.865997 527.063965,429.766785 527.059814,428.664215 
	C526.978699,407.305573 526.993652,385.946503 527.034546,364.587585 
	C527.035950,363.837799 527.506714,363.088928 528.088989,362.188721 
	C528.558350,371.962280 528.784241,381.886505 528.815002,391.811310 
	C528.855591,404.896484 528.742920,417.982117 528.565247,431.517151 
z"/>
<path fill="#92A3AD" opacity="1.000000" stroke="none" 
	d="
M871.331055,517.896729 
	C872.564087,509.983734 872.564087,509.983734 865.019897,505.887726 
	C867.737671,503.335876 870.390137,500.845398 873.118835,497.966339 
	C877.257202,504.259613 876.715149,511.251801 871.331055,517.896729 
z"/>
<path fill="#92A3AD" opacity="1.000000" stroke="none" 
	d="
M589.685242,347.086182 
	C588.922302,348.315674 587.840576,349.619873 586.425049,350.965515 
	C587.182983,349.724945 588.274719,348.442932 589.685242,347.086182 
z"/>
<path fill="#92A3AD" opacity="1.000000" stroke="none" 
	d="
M872.984863,496.679993 
	C872.404968,496.423218 871.774353,495.850098 871.170288,494.910095 
	C871.775940,495.150024 872.355103,495.756805 872.984863,496.679993 
z"/>
<path fill="#92A3AD" opacity="1.000000" stroke="none" 
	d="
M585.582520,351.825439 
	C585.688721,352.266357 585.546509,352.923553 585.088135,353.729828 
	C584.959351,353.266510 585.146729,352.654083 585.582520,351.825439 
z"/>
<path fill="#879BA5" opacity="1.000000" stroke="none" 
	d="
M710.206665,112.797470 
	C710.569580,112.196770 710.995178,111.894737 711.420837,111.592712 
	C711.535522,112.038994 711.650146,112.485275 711.764832,112.931549 
	C711.266357,112.986420 710.767822,113.041290 710.206665,112.797470 
z"/>
<path fill="#879BA5" opacity="1.000000" stroke="none" 
	d="
M710.609619,286.535339 
	C711.058105,286.651062 711.333191,286.933502 711.586853,287.233978 
	C711.593384,287.241791 711.366821,287.446289 711.248962,287.559021 
	C710.977051,287.274170 710.705139,286.989319 710.609619,286.535339 
z"/>
<path fill="#879BA5" opacity="1.000000" stroke="none" 
	d="
M706.390259,118.464661 
	C705.941650,118.348892 705.666748,118.066391 705.412964,117.765968 
	C705.406433,117.758270 705.633057,117.553764 705.750977,117.441071 
	C706.022827,117.725922 706.294739,118.010757 706.390259,118.464661 
z"/>
</svg>